<svg width="84" height="84" viewBox="0 0 84 84" fill="none" xmlns="http://www.w3.org/2000/svg">
<path d="M42.2105 83.8507C65.1193 83.8507 83.6905 65.2794 83.6905 42.3706C83.6905 19.4618 65.1193 0.890625 42.2105 0.890625C19.3017 0.890625 0.730469 19.4618 0.730469 42.3706C0.730469 65.2794 19.3017 83.8507 42.2105 83.8507Z" fill="white"/>
<path d="M42.2101 75.2103C60.3472 75.2103 75.0501 60.5073 75.0501 42.3702C75.0501 24.2332 60.3472 9.53027 42.2101 9.53027C24.0731 9.53027 9.37012 24.2332 9.37012 42.3702C9.37012 60.5073 24.0731 75.2103 42.2101 75.2103Z" fill="#FDE7E7"/>
<path d="M60.5502 30.5498C60.3095 30.2625 60.0139 30.0262 59.6808 29.8545C59.3477 29.6828 58.9838 29.5792 58.6102 29.5498L31.8302 27.3198C31.0786 27.256 30.3323 27.4927 29.7549 27.9782C29.1776 28.4637 28.8163 29.1583 28.7502 29.9098L28.2102 34.9698H26.0602C25.3034 34.9698 24.5774 35.2697 24.0414 35.8039C23.5053 36.3381 23.2028 37.063 23.2002 37.8198V54.5898C23.2028 55.3466 23.5053 56.0715 24.0414 56.6057C24.5774 57.1399 25.3034 57.4398 26.0602 57.4398H52.9302C53.6852 57.4371 54.4086 57.136 54.9425 56.6021C55.4764 56.0682 55.7776 55.3449 55.7802 54.5898V51.8697L56.7802 51.9498H57.0002C57.7148 51.945 58.4019 51.6738 58.9271 51.1893C59.4524 50.7047 59.778 50.0417 59.8402 49.3298L61.2302 32.6197C61.2638 32.2465 61.2229 31.8705 61.1096 31.5134C60.9962 31.1563 60.8129 30.8252 60.5702 30.5398L60.5502 30.5498ZM26.0602 36.4498H52.9302C53.2927 36.4524 53.6396 36.5976 53.896 36.854C54.1524 37.1103 54.2976 37.4572 54.3002 37.8198V39.3498H24.6902V37.7898C24.6902 37.4264 24.8345 37.0779 25.0914 36.821C25.3484 36.5641 25.6968 36.4198 26.0602 36.4198V36.4498ZM24.6902 40.8398H54.3002V43.9198H24.6902V40.8398ZM52.9302 55.9598H26.0602C25.6968 55.9598 25.3484 55.8154 25.0914 55.5584C24.8345 55.3015 24.6902 54.9531 24.6902 54.5898V45.3997H54.3002V54.5898C54.2976 54.9523 54.1524 55.2993 53.896 55.5556C53.6396 55.812 53.2927 55.9572 52.9302 55.9598ZM59.7302 32.5097L58.3402 49.2098C58.3096 49.5726 58.1368 49.9085 57.8596 50.1445C57.5824 50.3805 57.2232 50.4975 56.8602 50.4698L55.7802 50.3797V37.7898C55.7776 37.0347 55.4764 36.3113 54.9425 35.7774C54.4086 35.2435 53.6852 34.9424 52.9302 34.9398H29.7002L30.2202 30.0297C30.2507 29.6677 30.4238 29.3328 30.7014 29.0983C30.9789 28.8639 31.3382 28.7493 31.7002 28.7797L58.4802 31.0097C58.6596 31.0227 58.8345 31.0719 58.9944 31.1544C59.1542 31.2369 59.2957 31.351 59.4102 31.4897C59.5296 31.6293 59.6196 31.7917 59.6746 31.967C59.7296 32.1423 59.7485 32.3269 59.7302 32.5097Z" fill="#F94B4B"/>
<path d="M51.1898 47.6094H43.9998C43.8035 47.6094 43.6153 47.6874 43.4765 47.8262C43.3377 47.9649 43.2598 48.1532 43.2598 48.3495V53.0194C43.2598 53.2157 43.3377 53.4039 43.4765 53.5427C43.6153 53.6815 43.8035 53.7594 43.9998 53.7594H51.1498C51.346 53.7594 51.5343 53.6815 51.673 53.5427C51.8118 53.4039 51.8898 53.2157 51.8898 53.0194V48.3495C51.89 48.16 51.8176 47.9775 51.6873 47.8398C51.5571 47.7022 51.379 47.6196 51.1898 47.6094ZM50.4498 52.2694H44.7798V49.0995H50.4498V52.2694Z" fill="#F94B4B"/>
</svg>
