<svg width="84" height="84" viewBox="0 0 84 84" fill="none" xmlns="http://www.w3.org/2000/svg">
<path d="M41.9 83.8507C64.8087 83.8507 83.3799 65.2794 83.3799 42.3706C83.3799 19.4618 64.8087 0.890625 41.9 0.890625C18.9912 0.890625 0.419922 19.4618 0.419922 42.3706C0.419922 65.2794 18.9912 83.8507 41.9 83.8507Z" fill="white"/>
<path d="M41.9006 75.2103C60.0376 75.2103 74.7405 60.5073 74.7405 42.3702C74.7405 24.2332 60.0376 9.53027 41.9006 9.53027C23.7635 9.53027 9.06055 24.2332 9.06055 42.3702C9.06055 60.5073 23.7635 75.2103 41.9006 75.2103Z" fill="#E7E8FD"/>
<path d="M27.3102 61.6C27.1484 61.6 26.9932 61.5357 26.8788 61.4213C26.7644 61.3069 26.7002 61.1517 26.7002 60.9899V56.9899C26.7002 56.8281 26.7644 56.673 26.8788 56.5586C26.9932 56.4442 27.1484 56.3799 27.3102 56.3799H31.3102C31.472 56.3799 31.6271 56.4442 31.7415 56.5586C31.8559 56.673 31.9202 56.8281 31.9202 56.9899C31.9202 57.1517 31.8559 57.3069 31.7415 57.4213C31.6271 57.5357 31.472 57.6 31.3102 57.6H27.8902V61.0099C27.8877 61.1639 27.8261 61.3111 27.7181 61.4209C27.6102 61.5307 27.4641 61.5949 27.3102 61.6Z" fill="#8774E5"/>
<path d="M41.9 63.6094C39.1143 63.6111 36.3555 63.0635 33.7817 61.9979C31.2078 60.9323 28.8693 59.3697 26.9 57.3994C26.8004 57.2827 26.7483 57.1327 26.7544 56.9794C26.7604 56.826 26.824 56.6805 26.9325 56.572C27.0411 56.4635 27.1865 56.3998 27.3399 56.3938C27.4933 56.3878 27.6433 56.4398 27.76 56.5394C31.0476 59.8777 35.4029 61.9558 40.0661 62.4111C44.7293 62.8665 49.4043 61.6702 53.2756 59.031C57.1469 56.3918 59.9688 52.4772 61.2489 47.9701C62.529 43.463 62.1861 38.6495 60.28 34.3694C60.2469 34.2966 60.2286 34.2181 60.2264 34.1382C60.2241 34.0583 60.2378 33.9787 60.2666 33.9042C60.2955 33.8297 60.339 33.7617 60.3945 33.7042C60.45 33.6467 60.5165 33.6009 60.59 33.5695C60.6628 33.5364 60.7414 33.5182 60.8213 33.5159C60.9012 33.5136 60.9807 33.5273 61.0552 33.5562C61.1297 33.585 61.1977 33.6284 61.2552 33.684C61.3127 33.7395 61.3585 33.8059 61.39 33.8794C62.8022 37.1115 63.3868 40.6447 63.0911 44.1594C62.7954 47.6742 61.6286 51.0599 59.6962 54.0106C57.7638 56.9613 55.1267 59.384 52.0231 61.0599C48.9194 62.7358 45.4471 63.612 41.92 63.6094H41.9Z" fill="#8774E5"/>
<path d="M22.4901 49.9997C22.3653 50.0006 22.2433 49.9627 22.1411 49.891C22.039 49.8193 21.9617 49.7175 21.9201 49.5998C20.2749 45.0559 20.2284 40.0868 21.7883 35.5129C23.3483 30.939 26.4213 27.0338 30.5001 24.442C34.5789 21.8502 39.4195 20.7268 44.2229 21.2573C49.0263 21.7878 53.5051 23.9403 56.9201 27.3597C57.0336 27.474 57.0974 27.6286 57.0974 27.7898C57.0974 27.9509 57.0336 28.1055 56.9201 28.2198C56.8079 28.3298 56.6571 28.3913 56.5001 28.3913C56.343 28.3913 56.1922 28.3298 56.0801 28.2198C52.8689 24.9572 48.6357 22.8949 44.0873 22.3773C39.5389 21.8597 34.9505 22.9181 31.0885 25.3758C27.2264 27.8335 24.3243 31.5418 22.8668 35.8813C21.4093 40.2209 21.4846 44.9291 23.0801 49.2198C23.1069 49.2946 23.1186 49.374 23.1145 49.4533C23.1103 49.5327 23.0905 49.6105 23.0561 49.6821C23.0217 49.7537 22.9734 49.8179 22.914 49.8707C22.8546 49.9235 22.7853 49.9639 22.7101 49.9897C22.6443 50.0047 22.5759 50.0047 22.5101 49.9897L22.4901 49.9997Z" fill="#8774E5"/>
<path d="M56.4907 28.3999H52.4907C52.3306 28.3973 52.1781 28.3319 52.0658 28.2178C51.9536 28.1037 51.8907 27.95 51.8907 27.7899C51.8894 27.7103 51.9039 27.6312 51.9335 27.5573C51.9631 27.4833 52.007 27.4159 52.0628 27.3591C52.1187 27.3024 52.1853 27.2573 52.2588 27.2266C52.3322 27.1958 52.411 27.1799 52.4907 27.1799H55.9107V23.7899C55.9296 23.6428 56.0015 23.5077 56.1129 23.4098C56.2242 23.3119 56.3674 23.2578 56.5157 23.2578C56.664 23.2578 56.8072 23.3119 56.9185 23.4098C57.0299 23.5077 57.1017 23.6428 57.1207 23.7899V27.7899C57.1207 27.8717 57.1043 27.9527 57.0724 28.0281C57.0405 28.1034 56.9938 28.1716 56.935 28.2285C56.8762 28.2854 56.8066 28.3299 56.7302 28.3594C56.6539 28.3888 56.5725 28.4026 56.4907 28.3999Z" fill="#8774E5"/>
<path d="M51.5306 49.0098H38.6306C37.8535 49.0068 37.1007 48.7385 36.4969 48.2493C35.8932 47.7601 35.4746 47.0794 35.3105 46.3198L32.5306 33.3898H29.8306C29.7446 33.4008 29.6572 33.3935 29.5743 33.3682C29.4914 33.3428 29.4149 33.3 29.3498 33.2428C29.2847 33.1856 29.2325 33.1151 29.1968 33.0361C29.1611 32.9571 29.1426 32.8715 29.1426 32.7848C29.1426 32.6981 29.1611 32.6124 29.1968 32.5334C29.2325 32.4545 29.2847 32.384 29.3498 32.3268C29.4149 32.2695 29.4914 32.2268 29.5743 32.2014C29.6572 32.1761 29.7446 32.1687 29.8306 32.1798H33.0005C33.1392 32.1793 33.2738 32.2268 33.3813 32.3143C33.4889 32.4018 33.5628 32.5239 33.5906 32.6598L36.4705 46.0698C36.5777 46.5575 36.8483 46.9939 37.2375 47.3068C37.6268 47.6196 38.1112 47.79 38.6105 47.7898H51.5206C51.6806 47.7924 51.8332 47.8578 51.9454 47.9719C52.0577 48.086 52.1206 48.2397 52.1205 48.3998C52.1219 48.4794 52.1073 48.5585 52.0778 48.6324C52.0482 48.7064 52.0042 48.7738 51.9484 48.8306C51.8925 48.8873 51.826 48.9324 51.7525 48.9631C51.679 48.9939 51.6002 49.0098 51.5206 49.0098H51.5306Z" fill="#8774E5"/>
<path d="M48.5599 44.8403H35.4698C35.3098 44.8377 35.1572 44.7722 35.045 44.6581C34.9327 44.544 34.8699 44.3903 34.8699 44.2302C34.8685 44.1506 34.8831 44.0715 34.9127 43.9976C34.9422 43.9236 34.9862 43.8563 35.0421 43.7996C35.0979 43.7428 35.1645 43.6976 35.2379 43.6669C35.3114 43.6361 35.3902 43.6202 35.4698 43.6202H48.5599C48.8475 43.6246 49.1273 43.5264 49.3491 43.3431C49.5708 43.1599 49.72 42.9036 49.7699 42.6202L50.6899 36.6202H33.6899C33.6039 36.6313 33.5166 36.624 33.4337 36.5986C33.3508 36.5733 33.2742 36.5306 33.2091 36.4734C33.144 36.4161 33.0919 36.3456 33.0562 36.2666C33.0204 36.1876 33.002 36.1019 33.002 36.0153C33.002 35.9286 33.0204 35.8429 33.0562 35.7639C33.0919 35.6849 33.144 35.6145 33.2091 35.5573C33.2742 35.5 33.3508 35.4572 33.4337 35.4319C33.5166 35.4065 33.6039 35.3992 33.6899 35.4103H51.3999C51.4795 35.409 51.5586 35.4234 51.6326 35.453C51.7065 35.4826 51.7738 35.5266 51.8306 35.5824C51.8874 35.6382 51.9325 35.7049 51.9633 35.7783C51.994 35.8518 52.0099 35.9306 52.0099 36.0103C52.0148 36.0434 52.0148 36.0771 52.0099 36.1102L51.0099 42.7803C50.9194 43.3544 50.6269 43.8774 50.1851 44.255C49.7432 44.6327 49.1811 44.8403 48.5999 44.8403H48.5599Z" fill="#8774E5"/>
<path d="M48.3902 55.0098C47.8997 55.0098 47.4202 54.8644 47.0124 54.5918C46.6045 54.3193 46.2866 53.9321 46.0989 53.4789C45.9112 53.0258 45.8621 52.5271 45.9578 52.0461C46.0535 51.565 46.2897 51.123 46.6365 50.7762C46.9834 50.4293 47.4253 50.1932 47.9064 50.0975C48.3874 50.0018 48.8861 50.0509 49.3392 50.2386C49.7924 50.4263 50.1797 50.7442 50.4522 51.152C50.7247 51.5599 50.8702 52.0393 50.8702 52.5298C50.8702 53.1876 50.6089 53.8184 50.1438 54.2835C49.6787 54.7486 49.0479 55.0098 48.3902 55.0098ZM48.3902 51.2598C48.2146 51.2442 48.0377 51.2654 47.8707 51.3218C47.7037 51.3783 47.5503 51.4688 47.4203 51.5878C47.2902 51.7068 47.1864 51.8516 47.1153 52.0129C47.0443 52.1742 47.0076 52.3486 47.0076 52.5248C47.0076 52.7011 47.0443 52.8755 47.1153 53.0368C47.1864 53.1981 47.2902 53.3429 47.4203 53.4618C47.5503 53.5808 47.7037 53.6715 47.8707 53.728C48.0377 53.7844 48.2146 53.8055 48.3902 53.7898C48.7063 53.7617 49.0004 53.6163 49.2146 53.3821C49.4288 53.148 49.5476 52.8422 49.5476 52.5248C49.5476 52.2075 49.4288 51.9017 49.2146 51.6675C49.0004 51.4334 48.7063 51.2879 48.3902 51.2598Z" fill="#8774E5"/>
<path d="M39.9204 55.0098C39.4299 55.0098 38.9504 54.8644 38.5426 54.5918C38.1348 54.3193 37.8169 53.9321 37.6292 53.4789C37.4415 53.0258 37.3924 52.5271 37.4881 52.0461C37.5838 51.565 37.82 51.123 38.1668 50.7762C38.5136 50.4293 38.9555 50.1932 39.4366 50.0975C39.9176 50.0018 40.4163 50.0509 40.8695 50.2386C41.3227 50.4263 41.71 50.7442 41.9825 51.152C42.255 51.5599 42.4004 52.0393 42.4004 52.5298C42.4004 53.1876 42.1392 53.8184 41.6741 54.2835C41.209 54.7486 40.5781 55.0098 39.9204 55.0098ZM39.9204 51.2598C39.6692 51.2598 39.4237 51.3344 39.2148 51.4739C39.006 51.6135 38.8432 51.8118 38.7471 52.0439C38.6509 52.2759 38.6258 52.5313 38.6748 52.7776C38.7238 53.024 38.8448 53.2503 39.0224 53.4279C39.2 53.6055 39.4263 53.7264 39.6727 53.7754C39.919 53.8244 40.1744 53.7993 40.4064 53.7032C40.6385 53.6071 40.8368 53.4443 40.9764 53.2354C41.1159 53.0266 41.1904 52.781 41.1904 52.5298C41.1878 52.1938 41.0531 51.8723 40.8155 51.6347C40.5779 51.3971 40.2564 51.2624 39.9204 51.2598Z" fill="#8774E5"/>
</svg>
