<svg width="84" height="84" viewBox="0 0 84 84" fill="none" xmlns="http://www.w3.org/2000/svg">
<path d="M41.9205 83.8507C64.8293 83.8507 83.4005 65.2794 83.4005 42.3706C83.4005 19.4618 64.8293 0.890625 41.9205 0.890625C19.0118 0.890625 0.44043 19.4618 0.44043 42.3706C0.44043 65.2794 19.0118 83.8507 41.9205 83.8507Z" fill="white"/>
<path d="M41.9202 75.2103C60.0572 75.2103 74.7601 60.5073 74.7601 42.3702C74.7601 24.2332 60.0572 9.53027 41.9202 9.53027C23.7831 9.53027 9.08008 24.2332 9.08008 42.3702C9.08008 60.5073 23.7831 75.2103 41.9202 75.2103Z" fill="#FDF5E7"/>
<path d="M59.8298 57.2299H59.1699V40.09C59.9279 39.6069 60.5517 38.9402 60.9835 38.1519C61.4153 37.3635 61.641 36.4788 61.6399 35.58C61.6418 35.4789 61.6176 35.379 61.5698 35.2899L56.9799 27.2899C56.8214 27.0135 56.5928 26.7837 56.3171 26.6239C56.0415 26.4641 55.7285 26.38 55.4099 26.3799H28.4099C28.0902 26.3812 27.7763 26.4659 27.4993 26.6255C27.2222 26.7851 26.9914 27.014 26.8298 27.2899L22.2499 35.2899C22.199 35.3782 22.1715 35.4781 22.1699 35.58C22.1706 36.4785 22.3971 37.3623 22.8287 38.1504C23.2603 38.9385 23.8832 39.6055 24.6399 40.09V57.2299H23.9999C23.8461 57.2299 23.6985 57.291 23.5897 57.3998C23.481 57.5086 23.4199 57.6561 23.4199 57.8099C23.4199 57.9638 23.481 58.1113 23.5897 58.2201C23.6985 58.3289 23.8461 58.3899 23.9999 58.3899H59.8099C59.9638 58.3899 60.1112 58.3289 60.22 58.2201C60.3287 58.1113 60.3899 57.9638 60.3899 57.8099C60.3899 57.6561 60.3287 57.5086 60.22 57.3998C60.1112 57.291 59.9638 57.2299 59.8099 57.2299H59.8298ZM23.3999 36.1599H25.2499C25.4037 36.1599 25.5513 36.0988 25.66 35.99C25.7688 35.8812 25.8298 35.7338 25.8298 35.58C25.8298 35.4261 25.7688 35.2786 25.66 35.1698C25.5513 35.061 25.4037 34.9999 25.2499 34.9999H23.7799L27.8699 27.84C27.9269 27.7392 28.0098 27.6554 28.11 27.5974C28.2102 27.5394 28.324 27.5091 28.4398 27.5099H55.4398C55.5554 27.5102 55.669 27.5408 55.769 27.5988C55.8691 27.6567 55.9521 27.7399 56.0099 27.84L60.0999 34.9999H58.6299C58.4761 34.9999 58.3285 35.061 58.2197 35.1698C58.111 35.2786 58.0499 35.4261 58.0499 35.58C58.0499 35.7338 58.111 35.8812 58.2197 35.99C58.3285 36.0988 58.4761 36.1599 58.6299 36.1599H60.4799C60.3401 37.1665 59.841 38.0886 59.0746 38.756C58.3082 39.4234 57.3262 39.7909 56.3099 39.7909C55.2937 39.7909 54.3116 39.4234 53.5452 38.756C52.7787 38.0886 52.2797 37.1665 52.1399 36.1599H56.1399C56.2937 36.1599 56.4413 36.0988 56.55 35.99C56.6588 35.8812 56.7198 35.7338 56.7198 35.58C56.7198 35.4261 56.6588 35.2786 56.55 35.1698C56.4413 35.061 56.2937 34.9999 56.1399 34.9999H27.7299C27.576 34.9999 27.4285 35.061 27.3197 35.1698C27.2109 35.2786 27.1499 35.4261 27.1499 35.58C27.1499 35.7338 27.2109 35.8812 27.3197 35.99C27.4285 36.0988 27.576 36.1599 27.7299 36.1599H31.7299C31.5984 37.1716 31.1032 38.1009 30.3368 38.7742C29.5703 39.4475 28.585 39.8188 27.5648 39.8188C26.5446 39.8188 25.5594 39.4475 24.793 38.7742C24.0265 38.1009 23.5313 37.1716 23.3999 36.1599ZM50.8799 36.1599C50.7401 37.1665 50.2409 38.0886 49.4745 38.756C48.7081 39.4234 47.7261 39.7909 46.7098 39.7909C45.6936 39.7909 44.7116 39.4234 43.9452 38.756C43.1788 38.0886 42.6797 37.1665 42.5399 36.1599H50.8799ZM41.3099 36.1599C41.1702 37.1665 40.671 38.0886 39.9045 38.756C39.1381 39.4234 38.1562 39.7909 37.1399 39.7909C36.1236 39.7909 35.1417 39.4234 34.3752 38.756C33.6088 38.0886 33.1096 37.1665 32.9698 36.1599H41.3099ZM54.9299 57.2299H48.6799V55.2999H54.9299V57.2299ZM54.9299 54.1499H48.6799V43.5699H54.9299V54.1499ZM58.0199 57.2299H56.0898V42.9899C56.0898 42.836 56.0288 42.6886 55.92 42.5798C55.8113 42.4711 55.6637 42.4099 55.5099 42.4099H48.0999C47.946 42.4099 47.7985 42.4711 47.6897 42.5798C47.5809 42.6886 47.5199 42.836 47.5199 42.9899V57.2299H25.8298V40.6499C26.3893 40.844 26.9776 40.9421 27.5698 40.9399C28.0168 40.0544 28.7009 39.3102 29.5457 38.7903C30.3905 38.2704 31.3629 37.9951 32.3549 37.9951C33.3468 37.9951 34.3194 38.2704 35.1642 38.7903C36.009 39.3102 36.6929 40.0544 37.1399 40.9399C37.5869 40.0544 38.2708 39.3102 39.1156 38.7903C39.9604 38.2704 40.933 37.9951 41.9249 37.9951C42.9169 37.9951 43.8893 38.2704 44.7341 38.7903C45.5789 39.3102 46.2629 40.0544 46.7098 40.9399C47.1568 40.0544 47.8409 39.3102 48.6857 38.7903C49.5305 38.2704 50.5029 37.9951 51.4949 37.9951C52.4868 37.9951 53.4594 38.2704 54.3042 38.7903C55.149 39.3102 55.8329 40.0544 56.2799 40.9399C56.8721 40.9413 57.4602 40.8433 58.0199 40.6499V57.2299Z" fill="#F1A13A"/>
<path d="M45 42.4102H28.33C28.1761 42.4102 28.0287 42.4713 27.9199 42.5801C27.8112 42.6888 27.75 42.8363 27.75 42.9901V54.7202C27.75 54.874 27.8112 55.0215 27.9199 55.1302C28.0287 55.239 28.1761 55.3002 28.33 55.3002H45C45.1538 55.3002 45.3014 55.239 45.4102 55.1302C45.5189 55.0215 45.58 54.874 45.58 54.7202V42.9901C45.58 42.8363 45.5189 42.6888 45.4102 42.5801C45.3014 42.4713 45.1538 42.4102 45 42.4102ZM44.42 54.1501H28.91V43.5702H44.42V54.1501Z" fill="#F1A13A"/>
</svg>
