<svg width="84" height="84" viewBox="0 0 84 84" fill="none" xmlns="http://www.w3.org/2000/svg">
<path d="M42.27 83.8507C65.1788 83.8507 83.75 65.2794 83.75 42.3706C83.75 19.4618 65.1788 0.890625 42.27 0.890625C19.3612 0.890625 0.790039 19.4618 0.790039 42.3706C0.790039 65.2794 19.3612 83.8507 42.27 83.8507Z" fill="white"/>
<path d="M42.2697 75.2103C60.4067 75.2103 75.1096 60.5073 75.1096 42.3702C75.1096 24.2332 60.4067 9.53027 42.2697 9.53027C24.1326 9.53027 9.42969 24.2332 9.42969 42.3702C9.42969 60.5073 24.1326 75.2103 42.2697 75.2103Z" fill="#F0FBF9"/>
<path d="M44.6604 29.88C44.5558 29.88 44.4522 29.8593 44.3557 29.819C44.2592 29.7786 44.1716 29.7196 44.0981 29.6451C44.0247 29.5707 43.9667 29.4824 43.9276 29.3854C43.8885 29.2884 43.869 29.1847 43.8704 29.0801V26.4C43.8704 25.9757 43.7018 25.5687 43.4017 25.2687C43.1017 24.9686 42.6947 24.8 42.2704 24.8C41.846 24.8 41.4391 24.9686 41.139 25.2687C40.839 25.5687 40.6704 25.9757 40.6704 26.4V29.0801C40.6704 29.2923 40.5861 29.4957 40.436 29.6458C40.286 29.7958 40.0825 29.88 39.8704 29.88C39.6582 29.88 39.4547 29.7958 39.3047 29.6458C39.1547 29.4957 39.0703 29.2923 39.0703 29.0801V26.4C39.116 25.5836 39.4726 24.8156 40.0668 24.2538C40.6609 23.6919 41.4476 23.3789 42.2654 23.3789C43.0831 23.3789 43.8698 23.6919 44.464 24.2538C45.0582 24.8156 45.4146 25.5836 45.4603 26.4V29.0801C45.4603 29.2923 45.3761 29.4957 45.2261 29.6458C45.076 29.7958 44.8726 29.88 44.6604 29.88Z" fill="#5FC2B0"/>
<path d="M42.2697 61.5404C40.7879 61.5378 39.3676 60.948 38.3198 59.9003C37.2721 58.8525 36.6823 57.4322 36.6797 55.9504C36.6797 55.7383 36.7639 55.5348 36.9139 55.3848C37.064 55.2347 37.2674 55.1504 37.4796 55.1504C37.5842 55.1504 37.6878 55.1711 37.7843 55.2114C37.8808 55.2518 37.9684 55.311 38.0419 55.3854C38.1154 55.4598 38.1733 55.548 38.2124 55.645C38.2515 55.742 38.271 55.8459 38.2697 55.9504C38.2697 57.0113 38.691 58.0287 39.4412 58.7788C40.1913 59.529 41.2088 59.9504 42.2697 59.9504C43.3305 59.9504 44.3479 59.529 45.098 58.7788C45.8482 58.0287 46.2697 57.0113 46.2697 55.9504C46.2697 55.7383 46.3539 55.5348 46.5039 55.3848C46.6539 55.2347 46.8574 55.1504 47.0696 55.1504C47.2818 55.1504 47.4853 55.2347 47.6354 55.3848C47.7854 55.5348 47.8696 55.7383 47.8696 55.9504C47.867 57.4339 47.2759 58.8556 46.226 59.9037C45.176 60.9517 43.7531 61.5404 42.2697 61.5404Z" fill="#5FC2B0"/>
<path d="M55.8404 56.79H28.6904C28.2007 56.7891 27.7231 56.6384 27.3215 56.3582C26.9199 56.0779 26.6136 55.6815 26.4438 55.2222C26.274 54.7628 26.2488 54.2627 26.3715 53.7886C26.4943 53.3145 26.7591 52.8893 27.1304 52.5701C28.3781 51.5319 29.3828 50.2327 30.0739 48.764C30.765 47.2954 31.1257 45.6932 31.1304 44.0701V39.2201C31.1304 36.255 32.3083 33.4112 34.405 31.3146C36.5016 29.2179 39.3454 28.04 42.3105 28.04C45.2756 28.04 48.1192 29.2179 50.2159 31.3146C52.3125 33.4112 53.4904 36.255 53.4904 39.2201V44.0701C53.4879 45.687 53.8393 47.2848 54.52 48.7515C55.2006 50.2181 56.1941 51.5181 57.4305 52.5601C57.805 52.8778 58.073 53.3028 58.1983 53.7777C58.3236 54.2526 58.3002 54.7546 58.1312 55.2158C57.9622 55.677 57.6557 56.0752 57.2532 56.3567C56.8508 56.6382 56.3716 56.7895 55.8804 56.79H55.8404ZM42.2705 29.64C39.7288 29.64 37.2911 30.649 35.4929 32.4453C33.6947 34.2416 32.6831 36.6784 32.6805 39.2201V44.0701C32.6822 45.9185 32.2804 47.7451 31.5031 49.4222C30.7259 51.0994 29.592 52.5865 28.1805 53.78C28.0901 53.8539 28.0171 53.947 27.967 54.0525C27.9168 54.158 27.8907 54.2732 27.8905 54.39C27.8905 54.6022 27.9747 54.8057 28.1247 54.9557C28.2747 55.1057 28.4782 55.1901 28.6904 55.1901H55.8404C56.0526 55.1901 56.2561 55.1057 56.4061 54.9557C56.5561 54.8057 56.6405 54.6022 56.6405 54.39C56.6406 54.2756 56.6156 54.1625 56.5672 54.0588C56.5188 53.9551 56.4482 53.8634 56.3604 53.79C54.9479 52.5946 53.8127 51.1058 53.0339 49.4272C52.255 47.7486 51.8511 45.9206 51.8504 44.0701V39.2201C51.8478 36.6801 50.8376 34.2449 49.0416 32.4489C47.2456 30.6528 44.8104 29.6427 42.2705 29.64Z" fill="#5FC2B0"/>
</svg>
