<svg width="29" height="35" viewBox="0 0 29 35" fill="none" xmlns="http://www.w3.org/2000/svg">
<path d="M16.47 6.06015C16.2808 6.05752 16.1003 5.98051 15.9674 5.84576C15.8345 5.71102 15.76 5.52938 15.7601 5.34015V2.93015C15.73 2.57024 15.5658 2.23478 15.3 1.99026C15.0342 1.74575 14.6862 1.61005 14.3251 1.61005C13.9639 1.61005 13.6159 1.74575 13.3502 1.99026C13.0844 2.23478 12.9201 2.57024 12.8901 2.93015V5.34015C12.902 5.44114 12.8925 5.54353 12.862 5.64056C12.8315 5.73759 12.7809 5.82705 12.7133 5.90308C12.6458 5.9791 12.5629 6.03996 12.4701 6.08163C12.3773 6.12331 12.2767 6.14487 12.175 6.14487C12.0733 6.14487 11.9728 6.12331 11.8801 6.08163C11.7873 6.03996 11.7044 5.9791 11.6368 5.90308C11.5693 5.82705 11.5186 5.73759 11.4882 5.64056C11.4577 5.54353 11.4481 5.44114 11.4601 5.34015V2.93015C11.5033 2.19956 11.8239 1.51308 12.3564 1.01108C12.889 0.509076 13.5932 0.229492 14.3251 0.229492C15.0569 0.229492 15.7611 0.509076 16.2937 1.01108C16.8262 1.51308 17.1469 2.19956 17.1901 2.93015V5.34015C17.1901 5.53111 17.1142 5.71425 16.9792 5.84927C16.8442 5.9843 16.661 6.06015 16.47 6.06015Z" fill="white"/>
<path d="M14.3302 34.4405C13.0041 34.4405 11.7324 33.9137 10.7947 32.976C9.85699 32.0383 9.33019 30.7665 9.33019 29.4405C9.31823 29.3395 9.3278 29.2371 9.35827 29.14C9.38874 29.043 9.4394 28.9536 9.50695 28.8775C9.5745 28.8015 9.65741 28.7406 9.75018 28.699C9.84295 28.6573 9.94346 28.6357 10.0452 28.6357C10.1469 28.6357 10.2474 28.6573 10.3402 28.699C10.433 28.7406 10.5159 28.8015 10.5834 28.8775C10.651 28.9536 10.7016 29.043 10.7321 29.14C10.7626 29.2371 10.7722 29.3395 10.7602 29.4405C10.8087 30.3585 11.2076 31.223 11.8746 31.8557C12.5416 32.4884 13.4258 32.8411 14.3451 32.8411C15.2645 32.8411 16.1488 32.4884 16.8158 31.8557C17.4828 31.223 17.8817 30.3585 17.9302 29.4405C17.9182 29.3395 17.9278 29.2371 17.9582 29.14C17.9887 29.043 18.0394 28.9536 18.1069 28.8775C18.1745 28.8015 18.2574 28.7406 18.3502 28.699C18.4429 28.6573 18.5435 28.6357 18.6452 28.6357C18.7469 28.6357 18.8474 28.6573 18.9402 28.699C19.033 28.7406 19.1159 28.8015 19.1834 28.8775C19.251 28.9536 19.3016 29.043 19.3321 29.14C19.3626 29.2371 19.3721 29.3395 19.3602 29.4405C19.3602 30.0996 19.2299 30.7522 18.9767 31.3608C18.7236 31.9694 18.3526 32.5219 17.8851 32.9866C17.4177 33.4513 16.8629 33.819 16.2528 34.0685C15.6427 34.318 14.9893 34.4444 14.3302 34.4405Z" fill="white"/>
<path d="M26.4999 30.1502H2.14997C1.71116 30.1498 1.28297 30.0152 0.92292 29.7643C0.562873 29.5135 0.288216 29.1585 0.13581 28.747C-0.0165956 28.3355 -0.0394664 27.8872 0.0703197 27.4623C0.180106 27.0375 0.417265 26.6564 0.749946 26.3702C1.86058 25.4328 2.75355 24.2646 3.36665 22.9469C3.97974 21.6291 4.29821 20.1936 4.29993 18.7402V14.3903C4.29993 11.7315 5.35616 9.18157 7.23621 7.30151C9.11627 5.42146 11.6662 4.36523 14.325 4.36523C16.9838 4.36523 19.5337 5.42146 21.4137 7.30151C23.2938 9.18157 24.3499 11.7315 24.3499 14.3903V18.7402C24.3506 20.1903 24.6668 21.623 25.2763 22.9388C25.8859 24.2545 26.7743 25.422 27.88 26.3602C28.2208 26.6417 28.4662 27.0219 28.5822 27.4485C28.6983 27.8751 28.6794 28.3271 28.5281 28.7425C28.3769 29.1579 28.1007 29.5163 27.7375 29.7683C27.3743 30.0204 26.942 30.1538 26.4999 30.1502ZM14.33 5.80023C12.0508 5.80023 9.86491 6.70493 8.25239 8.31558C6.63986 9.92623 5.73258 12.1111 5.72993 14.3903V18.7402C5.73749 20.3957 5.38347 22.0329 4.69257 23.5373C4.00167 25.0418 2.99056 26.3772 1.72993 27.4503C1.65009 27.5183 1.58566 27.6025 1.54084 27.6973C1.49601 27.7921 1.4718 27.8954 1.46992 28.0002C1.47255 28.1895 1.54959 28.37 1.68433 28.5029C1.81908 28.6358 2.00071 28.7103 2.18995 28.7102H26.5399C26.7292 28.7103 26.9108 28.6358 27.0455 28.5029C27.1803 28.37 27.2573 28.1895 27.26 28.0002C27.2575 27.8964 27.2341 27.7942 27.1912 27.6997C27.1482 27.6052 27.0866 27.5203 27.01 27.4503C25.7397 26.3824 24.7188 25.0492 24.0191 23.5444C23.3193 22.0396 22.9579 20.3997 22.96 18.7402V14.3903C22.9573 12.1129 22.0514 9.92949 20.441 8.31912C18.8307 6.70876 16.6473 5.80288 14.3699 5.80023H14.33Z" fill="white"/>
</svg>
