<svg width="33" height="45" viewBox="0 0 33 45" fill="none" xmlns="http://www.w3.org/2000/svg">
<path d="M1.5498 35.68L1.80981 35.3199L13.9198 12.3199V12.0699L8.5798 2.06989C8.47976 1.88889 8.32608 1.7434 8.13989 1.65339C7.95371 1.56337 7.74421 1.53333 7.54022 1.56733C7.33623 1.60132 7.14778 1.69767 7.00085 1.8432C6.85393 1.98874 6.75575 2.17629 6.71982 2.37995L1.5498 35.68Z" stroke="#62D4C2" stroke-width="1.25" stroke-linejoin="round"/>
<path fill-rule="evenodd" clip-rule="evenodd" d="M1.7002 35.3999L1.90018 35.0199L13.9002 12.2699L8.57019 2.19987C8.48251 2.0234 8.33992 1.88015 8.16385 1.79167C7.98778 1.70318 7.78774 1.67432 7.59381 1.70927C7.39988 1.74422 7.22254 1.84113 7.08844 1.98551C6.95434 2.1299 6.87074 2.31395 6.85019 2.50993L1.7002 35.3999Z" stroke="#62D4C2" stroke-width="1.25" stroke-linejoin="round"/>
<path d="M17.8401 19.6702L21.8401 15.6001L17.8401 8.00012C17.7583 7.83105 17.6304 7.68851 17.4713 7.58875C17.3121 7.48898 17.128 7.43604 16.9402 7.43604C16.7523 7.43604 16.5682 7.48898 16.4091 7.58875C16.2499 7.68851 16.122 7.83105 16.0402 8.00012L13.9102 12.0602V12.4001L17.8401 19.6702Z" stroke="#62D4C2" stroke-width="1.25" stroke-linejoin="round"/>
<path fill-rule="evenodd" clip-rule="evenodd" d="M17.7702 19.5002L21.6402 15.5002L17.7702 8.14023C17.7064 7.98146 17.5982 7.84444 17.4586 7.74558C17.3189 7.64672 17.1537 7.59025 16.9828 7.58286C16.8118 7.57547 16.6424 7.61751 16.4947 7.70396C16.347 7.7904 16.2274 7.91749 16.1502 8.07017L14.0102 12.1803L13.9502 12.3902L17.7702 19.5002Z" stroke="#62D4C2" stroke-width="1.25" stroke-linejoin="round"/>
<path d="M1.5498 35.6801L1.66983 35.5601L2.08981 35.39L17.5898 19.9399L17.7898 19.41L13.9198 12.04L1.5498 35.6801Z" stroke="#62D4C2" stroke-width="1.25" stroke-linejoin="round"/>
<path d="M18.3395 43.4699L32.3395 35.64L28.3395 10.9599C28.2994 10.7926 28.2168 10.6385 28.0997 10.5125C27.9826 10.3865 27.835 10.2929 27.6711 10.2407C27.5072 10.1884 27.3326 10.1793 27.1642 10.2142C26.9957 10.2491 26.8391 10.3268 26.7095 10.4399L1.51953 35.68L15.4695 43.4699C15.9041 43.7107 16.3928 43.837 16.8896 43.837C17.3864 43.837 17.875 43.7107 18.3095 43.4699" stroke="#62D4C2" stroke-width="1.25" stroke-linejoin="round"/>
<path d="M32.2504 35.58L28.2504 11.08C28.2433 10.9137 28.187 10.7534 28.0886 10.6193C27.9902 10.4851 27.8542 10.3831 27.6978 10.3263C27.5414 10.2695 27.3717 10.2605 27.2101 10.3003C27.0486 10.3401 26.9025 10.4271 26.7904 10.55L1.69043 35.63L15.4804 43.34C15.9114 43.5808 16.3968 43.7073 16.8904 43.7073C17.3841 43.7073 17.8695 43.5808 18.3004 43.34L32.2504 35.58Z" stroke="#62D4C2" stroke-width="1.25" stroke-linejoin="round"/>
<path d="M18.3398 43.2401C17.9053 43.4809 17.4166 43.6072 16.9198 43.6072C16.423 43.6072 15.9344 43.4809 15.4998 43.2401L1.65982 35.5602L1.5498 35.6802L15.4998 43.4701C15.9344 43.7109 16.423 43.8372 16.9198 43.8372C17.4166 43.8372 17.9053 43.7109 18.3398 43.4701L32.3398 35.6401V35.4302L18.3398 43.2401Z" stroke="#62D4C2" stroke-width="1.25" stroke-linejoin="round"/>
</svg>
