<svg width="40" height="32" viewBox="0 0 40 32" fill="none" xmlns="http://www.w3.org/2000/svg">
<path d="M38.6596 3.93012C38.412 3.63588 38.1069 3.3953 37.763 3.22333C37.4191 3.05136 37.0435 2.95164 36.6596 2.93012L9.56964 0.670111C9.19103 0.635402 8.80927 0.676749 8.4469 0.791815C8.08453 0.90688 7.74889 1.09326 7.45966 1.34003C7.16975 1.59135 6.93221 1.89737 6.76062 2.24055C6.58903 2.58372 6.48677 2.95731 6.45966 3.34003L5.90961 8.45002H3.73962C2.97396 8.45265 2.24045 8.75797 1.69904 9.29938C1.15763 9.84079 0.852245 10.5744 0.849609 11.34V28.34C0.852245 29.1057 1.15763 29.8393 1.69904 30.3807C2.24045 30.9221 2.97396 31.2274 3.73962 31.23H30.9996C31.7661 31.23 32.5012 30.9256 33.0432 30.3836C33.5851 29.8416 33.8896 29.1065 33.8896 28.34V25.59L34.8896 25.6701H35.1296C35.8539 25.6678 36.5511 25.3945 37.084 24.9041C37.617 24.4137 37.9472 23.7417 38.0096 23.0201L39.4196 6.12006C39.4813 5.35443 39.2368 4.5956 38.7396 4.01008L38.6596 3.93012ZM3.76965 9.93012H30.9996C31.1822 9.93012 31.3629 9.96598 31.5316 10.0358C31.7002 10.1057 31.8534 10.2082 31.9825 10.3372C32.1116 10.4663 32.214 10.6195 32.2838 10.7882C32.3537 10.9568 32.3896 11.1375 32.3896 11.32V12.8701H2.38965V11.32C2.38965 11.1375 2.42557 10.9568 2.49542 10.7882C2.56528 10.6195 2.66768 10.4663 2.79675 10.3372C2.92583 10.2082 3.07904 10.1057 3.24768 10.0358C3.41632 9.96598 3.59713 9.93012 3.77966 9.93012H3.76965ZM2.37964 14.3701H32.3796V17.4901H2.37964V14.3701ZM30.9496 29.6601H3.76965C3.58759 29.6614 3.40705 29.6267 3.23846 29.5579C3.06988 29.4892 2.91656 29.3877 2.78735 29.2595C2.65815 29.1312 2.55563 28.9786 2.48566 28.8105C2.41568 28.6424 2.37963 28.4622 2.37964 28.2801V19.0001H32.3796V28.2901C32.3796 28.4722 32.3436 28.6524 32.2736 28.8205C32.2036 28.9886 32.1011 29.1412 31.9719 29.2695C31.8427 29.3978 31.6894 29.4992 31.5208 29.5679C31.3522 29.6367 31.1717 29.6714 30.9896 29.6701L30.9496 29.6601ZM37.8397 5.94001L36.4296 22.84C36.3991 23.2073 36.2239 23.5476 35.9426 23.7857C35.6613 24.0239 35.2969 24.1405 34.9296 24.1101L33.8397 24.0201V11.32C33.8397 10.9405 33.7649 10.5647 33.6196 10.2141C33.4744 9.86343 33.2615 9.54492 32.9932 9.27656C32.7248 9.00819 32.4062 8.79533 32.0556 8.65009C31.705 8.50486 31.3292 8.43012 30.9496 8.43012H7.45966L7.97961 3.43012C7.99345 3.24908 8.04315 3.0725 8.12579 2.91083C8.20844 2.74916 8.32236 2.60559 8.461 2.48835C8.59964 2.37111 8.7602 2.28261 8.93335 2.22797C9.1065 2.17333 9.28878 2.15368 9.4696 2.17011L36.5596 4.43012C36.7415 4.44269 36.9191 4.49134 37.0819 4.57343C37.2447 4.65552 37.3895 4.76937 37.5078 4.90815C37.6261 5.04692 37.7155 5.20789 37.7708 5.38166C37.826 5.55543 37.8461 5.73851 37.8297 5.92011L37.8397 5.94001Z" fill="#62D4C2"/>
<path d="M29.2 21.19H22C21.8019 21.1926 21.6126 21.2725 21.4725 21.4126C21.3324 21.5527 21.2526 21.7419 21.25 21.94V26.6601C21.25 26.859 21.329 27.0498 21.4697 27.1904C21.6103 27.3311 21.8011 27.4101 22 27.4101H29.24C29.4389 27.4101 29.6297 27.3311 29.7703 27.1904C29.911 27.0498 29.99 26.859 29.99 26.6601V21.94C29.9887 21.8385 29.9672 21.7383 29.9265 21.6452C29.8859 21.5522 29.8269 21.4682 29.7533 21.3983C29.6797 21.3284 29.5928 21.274 29.4977 21.2383C29.4027 21.2025 29.3015 21.186 29.2 21.19ZM28.44 25.9101H22.72V22.69H28.44V25.9101Z" fill="#62D4C2"/>
</svg>
