<svg width="22" height="37" viewBox="0 0 22 37" fill="none" xmlns="http://www.w3.org/2000/svg">
<path d="M17.5503 0.820312H4.5603C2.7709 0.820312 1.32031 2.2709 1.32031 4.0603V32.4403C1.32031 34.2297 2.7709 35.6803 4.5603 35.6803H17.5503C19.3397 35.6803 20.7903 34.2297 20.7903 32.4403V4.0603C20.7903 2.2709 19.3397 0.820312 17.5503 0.820312Z" stroke="#00D8C3" stroke-width="1.25" stroke-miterlimit="10"/>
<path d="M20.8903 5.04004H1.32031" stroke="#00D8C3" stroke-width="1.25" stroke-miterlimit="10"/>
<path d="M9.35956 9.08984H4.55957V13.8899H9.35956V9.08984Z" stroke="#00D8C3" stroke-width="1.25" stroke-miterlimit="10"/>
<path d="M17.6203 9.08984H12.8203V13.8899H17.6203V9.08984Z" stroke="#00D8C3" stroke-width="1.25" stroke-miterlimit="10"/>
<path d="M9.35956 16.8701H4.55957V21.6701H9.35956V16.8701Z" stroke="#00D8C3" stroke-width="1.25" stroke-miterlimit="10"/>
<path d="M17.6203 16.8701H12.8203V21.6701H17.6203V16.8701Z" stroke="#00D8C3" stroke-width="1.25" stroke-miterlimit="10"/>
<path d="M8.17969 26.0898H14.0397" stroke="#00D8C3" stroke-width="1.25" stroke-miterlimit="10" stroke-linecap="round"/>
<path d="M1.32031 30.6602H20.7903" stroke="#00D8C3" stroke-width="1.25" stroke-miterlimit="10"/>
<path d="M9.58984 32.9004H12.6299" stroke="#00D8C3" stroke-width="1.25" stroke-miterlimit="10" stroke-linecap="round"/>
</svg>
