<svg width="35" height="39" viewBox="0 0 35 39" fill="none" xmlns="http://www.w3.org/2000/svg">
<path d="M31.0999 16.4496H30.9999V14.1697C30.9999 10.6582 29.605 7.29048 27.122 4.8075C24.639 2.32451 21.2714 0.929688 17.7599 0.929688C14.2485 0.929688 10.8808 2.32451 8.39783 4.8075C5.91485 7.29048 4.51996 10.6582 4.51996 14.1697V16.4496H3.99994C3.0043 16.4912 2.06538 16.9244 1.38745 17.6548C0.709521 18.3852 0.347438 19.3536 0.379944 20.3496V26.1597C0.367979 26.6417 0.45111 27.1212 0.624572 27.571C0.798035 28.0209 1.05841 28.4322 1.39087 28.7814C1.72333 29.1306 2.12132 29.4108 2.56213 29.6061C3.00294 29.8014 3.47797 29.908 3.95996 29.9197H7.43994C7.55554 29.9145 7.66899 29.8866 7.7738 29.8375C7.87862 29.7885 7.97276 29.7194 8.05078 29.6339C8.1288 29.5485 8.18919 29.4484 8.22852 29.3396C8.26784 29.2308 8.28534 29.1152 8.27997 28.9996V17.5597C8.27997 17.0097 7.94994 16.4496 7.43994 16.4496H6.43994V14.1697C6.43994 11.1515 7.63891 8.25697 9.77307 6.1228C11.9072 3.98864 14.8018 2.78967 17.8199 2.78967C20.8381 2.78967 23.7327 3.98864 25.8668 6.1228C28.001 8.25697 29.2 11.1515 29.2 14.1697V16.4496H28.2C27.69 16.4496 27.3699 17.0097 27.3699 17.5597V28.9996C27.3531 29.1169 27.3602 29.2363 27.3906 29.3507C27.4211 29.4651 27.4744 29.5723 27.5472 29.6656C27.62 29.759 27.7109 29.8366 27.8145 29.894C27.9181 29.9514 28.0322 29.9874 28.15 29.9996H29.27L29.1799 30.1396C28.4917 31.0528 27.6002 31.7929 26.576 32.3015C25.5519 32.8101 24.4234 33.0731 23.28 33.0696C23.0558 31.9528 22.4252 30.9589 21.5104 30.2803C20.5955 29.6016 19.4614 29.2866 18.3276 29.3961C17.1938 29.5056 16.1409 30.032 15.3729 30.8732C14.6048 31.7144 14.1761 32.8105 14.1699 33.9496C14.1831 35.1742 14.6788 36.3442 15.5494 37.2054C16.4201 38.0667 17.5953 38.5498 18.8199 38.5497C20.0795 38.5286 21.2798 38.011 22.1599 37.1096C22.7575 36.5019 23.1493 35.7219 23.28 34.8796C24.7109 34.8847 26.1232 34.5555 27.4044 33.9183C28.6857 33.2812 29.8004 32.3536 30.6599 31.2096L31.5499 29.9097C31.9763 29.9205 32.4004 29.8451 32.797 29.6881C33.1936 29.5311 33.5543 29.2957 33.8578 28.996C34.1612 28.6963 34.4011 28.3384 34.563 27.9438C34.7249 27.5493 34.8054 27.126 34.7999 26.6996V20.8997C34.7199 18.8197 33.2299 16.4496 31.0999 16.4496ZM6.37994 28.0597H3.99994C3.76268 28.0545 3.52878 28.0024 3.31171 27.9065C3.09464 27.8106 2.89868 27.6727 2.73511 27.5007C2.57153 27.3288 2.44356 27.1262 2.35858 26.9047C2.2736 26.6831 2.23328 26.4468 2.23993 26.2096V20.3496C2.21754 19.8533 2.38841 19.3677 2.71661 18.9948C3.04482 18.6218 3.50482 18.3905 3.99994 18.3496H6.41992L6.37994 28.0597ZM20.7399 35.7296C20.4851 36.0061 20.176 36.227 19.8318 36.3784C19.4877 36.5298 19.1159 36.6086 18.7399 36.6096C18.0116 36.5997 17.3153 36.3094 16.7956 35.7991C16.2759 35.2887 15.973 34.5976 15.95 33.8696C15.95 33.1429 16.2386 32.446 16.7524 31.9321C17.2663 31.4183 17.9632 31.1296 18.6899 31.1296C19.4166 31.1296 20.1136 31.4183 20.6274 31.9321C21.1413 32.446 21.4299 33.1429 21.4299 33.8696C21.4497 34.2105 21.3987 34.5518 21.2799 34.8719C21.1611 35.1921 20.9773 35.4841 20.7399 35.7296ZM32.8599 26.6196C32.8599 27.8796 31.6499 28.0597 31.0999 28.0597H29.0999V18.3097H31.0999C32.0999 18.3097 32.8599 19.7496 32.8599 20.8196V26.6196Z" fill="#62D4C2"/>
</svg>
