<svg width="48" height="34" viewBox="0 0 48 34" fill="none" xmlns="http://www.w3.org/2000/svg">
<path d="M44.8299 11.2701H39.7699V3.37012C39.7699 2.57447 39.4538 1.81139 38.8912 1.24878C38.3286 0.68617 37.5655 0.370117 36.7699 0.370117H5.16992C4.37427 0.370117 3.61119 0.68617 3.04858 1.24878C2.48597 1.81139 2.16992 2.57447 2.16992 3.37012V23.1201H1.16992C0.904705 23.1201 0.650335 23.2254 0.462799 23.413C0.275263 23.6005 0.169922 23.8549 0.169922 24.1201C0.169922 25.4276 0.689307 26.6816 1.61386 27.6062C2.53842 28.5308 3.7924 29.0502 5.09991 29.0502H33.9999V30.0502C33.9999 30.8458 34.316 31.6088 34.8786 32.1714C35.4412 32.734 36.2043 33.0502 36.9999 33.0502H44.8899C45.6856 33.0502 46.4486 32.734 47.0112 32.1714C47.5738 31.6088 47.8899 30.8458 47.8899 30.0502V14.2501C47.8874 13.8527 47.8058 13.4599 47.6501 13.0942C47.4945 12.7286 47.2677 12.3975 46.983 12.1202C46.6983 11.843 46.3614 11.6251 45.9918 11.4791C45.6221 11.3332 45.2272 11.2622 44.8299 11.2701ZM4.22992 3.37012C4.22992 3.1049 4.33526 2.8505 4.5228 2.66296C4.71033 2.47543 4.9647 2.37012 5.22992 2.37012H36.8299C37.0951 2.37012 37.3495 2.47543 37.537 2.66296C37.7246 2.8505 37.8299 3.1049 37.8299 3.37012V11.2701H36.9699C36.1743 11.2701 35.4112 11.5862 34.8486 12.1488C34.286 12.7114 33.9699 13.4745 33.9699 14.2701V23.1602H23.9999C23.7347 23.1602 23.4804 23.2655 23.2928 23.453C23.1053 23.6405 22.9999 23.8949 22.9999 24.1602H18.9999C18.9999 23.8949 18.8945 23.6405 18.707 23.453C18.5195 23.2655 18.2651 23.1602 17.9999 23.1602H4.22992V3.37012ZM5.22992 27.0701C4.61611 27.0622 4.01948 26.8663 3.52057 26.5087C3.02166 26.151 2.64448 25.6488 2.43991 25.0701H17.0799C17.0799 25.3353 17.1853 25.5897 17.3728 25.7772C17.5603 25.9648 17.8147 26.0701 18.0799 26.0701H23.9999C24.2651 26.0701 24.5195 25.9648 24.707 25.7772C24.8945 25.5897 24.9999 25.3353 24.9999 25.0701H33.9999V27.0701H5.22992ZM45.8399 30.0701C45.8399 30.3353 45.7346 30.5897 45.547 30.7772C45.3595 30.9648 45.1051 31.0701 44.8399 31.0701H36.9499C36.6847 31.0701 36.4303 30.9648 36.2428 30.7772C36.0553 30.5897 35.9499 30.3353 35.9499 30.0701V14.2701C35.9499 14.0049 36.0553 13.7505 36.2428 13.563C36.4303 13.3755 36.6847 13.2701 36.9499 13.2701H44.8399C45.1051 13.2701 45.3595 13.3755 45.547 13.563C45.7346 13.7505 45.8399 14.0049 45.8399 14.2701V30.0701Z" fill="#62D4C2"/>
</svg>
