<svg width="33" height="39" viewBox="0 0 33 39" fill="none" xmlns="http://www.w3.org/2000/svg">
<path d="M18.6604 6.88C18.5558 6.88001 18.4522 6.85929 18.3557 6.81897C18.2592 6.77864 18.1716 6.71956 18.0981 6.64514C18.0247 6.57072 17.9667 6.48238 17.9276 6.38538C17.8885 6.28837 17.869 6.18466 17.8704 6.08008V3.40002C17.8704 2.97568 17.7018 2.56873 17.4017 2.26868C17.1017 1.96862 16.6947 1.80005 16.2704 1.80005C15.846 1.80005 15.4391 1.96862 15.139 2.26868C14.839 2.56873 14.6704 2.97568 14.6704 3.40002V6.08008C14.6704 6.29225 14.5861 6.49572 14.436 6.64575C14.286 6.79578 14.0825 6.88 13.8704 6.88C13.6582 6.88 13.4547 6.79578 13.3047 6.64575C13.1547 6.49572 13.0703 6.29225 13.0703 6.08008V3.40002C13.116 2.58356 13.4726 1.81562 14.0668 1.25378C14.6609 0.691944 15.4476 0.378906 16.2654 0.378906C17.0831 0.378906 17.8698 0.691944 18.464 1.25378C19.0582 1.81562 19.4146 2.58356 19.4603 3.40002V6.08008C19.4603 6.29225 19.3761 6.49572 19.2261 6.64575C19.076 6.79578 18.8726 6.88 18.6604 6.88Z" fill="#5FC2B0"/>
<path d="M16.2697 38.5399C14.7879 38.5373 13.3676 37.9475 12.3198 36.8998C11.2721 35.852 10.6823 34.4317 10.6797 32.95C10.6797 32.7378 10.7639 32.5343 10.9139 32.3843C11.064 32.2342 11.2674 32.1499 11.4796 32.1499C11.5842 32.1499 11.6878 32.1706 11.7843 32.2109C11.8808 32.2513 11.9684 32.3105 12.0419 32.3849C12.1154 32.4593 12.1733 32.5475 12.2124 32.6445C12.2515 32.7415 12.271 32.8454 12.2697 32.95C12.2697 34.0108 12.691 35.0282 13.4412 35.7783C14.1913 36.5285 15.2088 36.95 16.2697 36.95C17.3305 36.95 18.3479 36.5285 19.098 35.7783C19.8482 35.0282 20.2697 34.0108 20.2697 32.95C20.2697 32.7378 20.3539 32.5343 20.5039 32.3843C20.6539 32.2342 20.8574 32.1499 21.0696 32.1499C21.2818 32.1499 21.4853 32.2342 21.6354 32.3843C21.7854 32.5343 21.8696 32.7378 21.8696 32.95C21.867 34.4334 21.2759 35.8552 20.226 36.9032C19.176 37.9512 17.7531 38.5399 16.2697 38.5399Z" fill="#5FC2B0"/>
<path d="M29.8404 33.79H2.69038C2.20067 33.7891 1.72307 33.6384 1.32148 33.3582C0.919896 33.0779 0.613597 32.6815 0.443798 32.2222C0.273999 31.7628 0.248796 31.2627 0.371532 30.7886C0.494269 30.3145 0.759081 29.8893 1.13044 29.5701C2.37809 28.5319 3.38281 27.2327 4.07393 25.764C4.76504 24.2954 5.12572 22.6932 5.13044 21.0701V16.2201C5.13044 13.255 6.30832 10.4112 8.40498 8.31458C10.5016 6.21792 13.3454 5.04004 16.3105 5.04004C19.2756 5.04004 22.1192 6.21792 24.2159 8.31458C26.3125 10.4112 27.4904 13.255 27.4904 16.2201V21.0701C27.4879 22.687 27.8393 24.2848 28.52 25.7515C29.2006 27.2181 30.1941 28.5181 31.4305 29.5601C31.805 29.8778 32.073 30.3028 32.1983 30.7777C32.3236 31.2526 32.3002 31.7546 32.1312 32.2158C31.9622 32.677 31.6557 33.0752 31.2532 33.3567C30.8508 33.6382 30.3716 33.7895 29.8804 33.79H29.8404ZM16.2705 6.64001C13.7288 6.64001 11.2911 7.649 9.49287 9.44531C7.69468 11.2416 6.68314 13.6784 6.68049 16.2201V21.0701C6.68225 22.9185 6.28037 24.7451 5.50312 26.4222C4.72588 28.0994 3.59201 29.5865 2.18049 30.78C2.09007 30.8539 2.01714 30.947 1.96699 31.0525C1.91685 31.158 1.8907 31.2732 1.89045 31.39C1.89045 31.6022 1.97468 31.8057 2.12471 31.9557C2.27474 32.1057 2.47821 32.1901 2.69038 32.1901H29.8404C30.0526 32.1901 30.2561 32.1057 30.4061 31.9557C30.5561 31.8057 30.6405 31.6022 30.6405 31.39C30.6406 31.2756 30.6156 31.1625 30.5672 31.0588C30.5188 30.9551 30.4482 30.8634 30.3604 30.79C28.9479 29.5946 27.8127 28.1058 27.0339 26.4272C26.255 24.7486 25.8511 22.9206 25.8504 21.0701V16.2201C25.8478 13.6801 24.8376 11.2449 23.0416 9.44885C21.2456 7.65283 18.8104 6.64266 16.2705 6.64001Z" fill="#5FC2B0"/>
</svg>
