<svg width="19" height="19" viewBox="0 0 19 19" fill="none" xmlns="http://www.w3.org/2000/svg">
<path d="M9.00391 18.0409C6.54391 18.0409 6.25391 18.0279 5.29391 17.9859C4.54528 17.9613 3.80634 17.8091 3.10891 17.5359C1.90222 17.0663 0.948047 16.1117 0.478906 14.9049C0.216212 14.2049 0.0745241 13.4654 0.0599063 12.7179C0.00390625 11.7599 0.00390625 11.4459 0.00390625 9.00488C0.00390625 6.53788 0.0169063 6.24988 0.0599063 5.29488C0.0748439 4.5484 0.216527 3.80989 0.478906 3.11088C0.947538 1.90241 1.90326 0.947055 3.11191 0.478883C3.81055 0.215085 4.54925 0.0730271 5.29591 0.0588828C6.25091 0.00488281 6.56491 0.00488281 9.00391 0.00488281C11.4839 0.00488281 11.7689 0.0178828 12.7139 0.0588828C13.4625 0.0731494 14.2032 0.215192 14.9039 0.478883C16.1122 0.947586 17.0677 1.90276 17.5369 3.11088C17.804 3.82008 17.9465 4.57013 17.9579 5.32788C18.0139 6.28588 18.0139 6.59888 18.0139 9.03888C18.0139 11.4789 17.9999 11.7989 17.9579 12.7459C17.943 13.4941 17.801 14.2343 17.5379 14.9349C17.0676 16.1426 16.112 17.0975 14.9039 17.5669C14.2042 17.8291 13.465 17.9707 12.7179 17.9859C11.7629 18.0409 11.4499 18.0409 9.00391 18.0409ZM8.96991 1.58788C6.52391 1.58788 6.26991 1.59988 5.31491 1.64288C4.74489 1.65043 4.18039 1.75562 3.64591 1.95388C2.85666 2.25589 2.23213 2.87787 1.92691 3.66588C1.72712 4.20618 1.62191 4.77686 1.61591 5.35288C1.56291 6.32188 1.56291 6.57588 1.56291 9.00488C1.56291 11.4049 1.57191 11.6959 1.61591 12.6589C1.62486 13.2291 1.73 13.7937 1.92691 14.3289C2.23258 15.1164 2.857 15.7379 3.64591 16.0399C4.18002 16.2395 4.74476 16.3447 5.31491 16.3509C6.28291 16.4069 6.53791 16.4069 8.96991 16.4069C11.4229 16.4069 11.6769 16.3949 12.6239 16.3509C13.1943 16.3439 13.7592 16.2387 14.2939 16.0399C15.0784 15.7353 15.6988 15.1152 16.0039 14.3309C16.2033 13.7901 16.3085 13.2192 16.3149 12.6429H16.3259C16.3689 11.6869 16.3689 11.4319 16.3689 8.98888C16.3689 6.54588 16.3579 6.28888 16.3149 5.33388C16.3059 4.76433 16.2008 4.20039 16.0039 3.66588C15.6995 2.88046 15.079 2.25918 14.2939 1.95388C13.7594 1.75462 13.1943 1.6494 12.6239 1.64288C11.6569 1.58788 11.4039 1.58788 8.96991 1.58788ZM9.00391 13.6239C7.1339 13.6251 5.44733 12.4996 4.73077 10.7723C4.01421 9.04506 4.40881 7.05621 5.73054 5.73334C7.05226 4.41047 9.04077 4.01415 10.7687 4.72921C12.4966 5.44428 13.6235 7.12987 13.6239 8.99988C13.6212 11.5509 11.555 13.6189 9.00391 13.6239ZM9.00391 5.99788C7.34705 5.99788 6.00391 7.34103 6.00391 8.99788C6.00391 10.6547 7.34705 11.9979 9.00391 11.9979C10.6608 11.9979 12.0039 10.6547 12.0039 8.99788C12.0001 7.34263 10.6592 6.00173 9.00391 5.99788ZM13.8039 5.28489C13.2093 5.28268 12.7288 4.79947 12.7299 4.20489C12.731 3.61031 13.2133 3.12889 13.8079 3.12889C14.4025 3.12889 14.8848 3.6103 14.8859 4.20488C14.8862 4.49174 14.7722 4.76691 14.5692 4.96956C14.3661 5.17222 14.0908 5.28568 13.8039 5.28489Z" fill="#040D21"/>
</svg>
