<svg width="110" height="34" viewBox="0 0 110 34" fill="none" xmlns="http://www.w3.org/2000/svg">
<g clip-path="url(#clip0_2_881)">
<path d="M2.773 27.2374C4.30449 27.2374 5.546 25.9959 5.546 24.4644C5.546 22.9329 4.30449 21.6914 2.773 21.6914C1.24151 21.6914 0 22.9329 0 24.4644C0 25.9959 1.24151 27.2374 2.773 27.2374Z" fill="#F85081"/>
<path d="M14.6679 2.746C15.4262 2.746 16.0409 2.13129 16.0409 1.373C16.0409 0.614713 15.4262 0 14.6679 0C13.9096 0 13.2949 0.614713 13.2949 1.373C13.2949 2.13129 13.9096 2.746 14.6679 2.746Z" fill="#CECECE"/>
<path d="M49.7151 31.3531C49.7153 31.7128 49.6088 32.0643 49.4092 32.3634C49.2095 32.6625 48.9257 32.8957 48.5935 33.0335C48.2613 33.1712 47.8958 33.2074 47.5431 33.1373C47.1903 33.0673 46.8663 32.8942 46.6119 32.64C46.3576 32.3858 46.1843 32.0619 46.1141 31.7092C46.0439 31.3565 46.0798 30.9909 46.2174 30.6587C46.355 30.3264 46.5879 30.0424 46.8869 29.8426C47.1859 29.6428 47.5375 29.5361 47.8971 29.5361C48.3791 29.5361 48.8413 29.7275 49.1822 30.0683C49.5231 30.409 49.7148 30.8712 49.7151 31.3531Z" fill="#FAD31C"/>
<path d="M109.991 13.4394C109.991 14.0901 109.798 14.7262 109.437 15.2672C109.075 15.8083 108.561 16.23 107.96 16.479C107.359 16.728 106.697 16.7931 106.059 16.6662C105.421 16.5393 104.835 16.2259 104.375 15.7658C103.915 15.3057 103.601 14.7195 103.474 14.0813C103.347 13.4431 103.413 12.7816 103.662 12.1804C103.911 11.5792 104.332 11.0654 104.873 10.7039C105.414 10.3424 106.05 10.1494 106.701 10.1494C107.574 10.1497 108.41 10.4964 109.027 11.1133C109.644 11.7303 109.991 12.5669 109.991 13.4394Z" fill="#FFC62A"/>
<path d="M69.0804 11.7928L60.2174 14.9308C59.5514 15.1643 58.82 15.1248 58.183 14.8209C57.546 14.517 57.0551 13.9734 56.8174 13.3088C56.5839 12.6428 56.6235 11.9114 56.9274 11.2744C57.2313 10.6374 57.7749 10.1465 58.4395 9.90884L67.3024 6.77084C67.9685 6.53707 68.7 6.57647 69.3371 6.8804C69.9742 7.18433 70.4651 7.72809 70.7025 8.39285C70.936 9.05891 70.8964 9.79028 70.5925 10.4273C70.2886 11.0643 69.745 11.5552 69.0804 11.7928Z" fill="#9177F2"/>
<path d="M35.8353 15.623L30.4224 21.036C30.0145 21.441 29.4631 21.6682 28.8883 21.6682C28.3136 21.6682 27.7622 21.441 27.3544 21.036C26.9491 20.6283 26.7217 20.0768 26.7217 19.502C26.7217 18.9272 26.9491 18.3757 27.3544 17.968L32.7683 12.555C33.1759 12.1495 33.7275 11.9219 34.3024 11.9219C34.8773 11.9219 35.4287 12.1495 35.8363 12.555C36.2416 12.9627 36.4691 13.5143 36.4689 14.0892C36.4687 14.6641 36.2409 15.2156 35.8353 15.623Z" fill="#A5E7CB"/>
<path d="M85.0252 21.3757L82.3182 18.6687C82.1156 18.4649 82.0019 18.1891 82.0019 17.9017C82.0019 17.6143 82.1156 17.3385 82.3182 17.1347C82.5221 16.9321 82.7978 16.8184 83.0852 16.8184C83.3726 16.8184 83.6484 16.9321 83.8522 17.1347L86.5592 19.8417C86.7621 20.0454 86.876 20.3212 86.876 20.6087C86.876 20.8962 86.7621 21.172 86.5592 21.3757C86.3555 21.5786 86.0797 21.6925 85.7922 21.6925C85.5047 21.6925 85.2289 21.5786 85.0252 21.3757Z" fill="#CECECE"/>
</g>
<defs>
<clipPath id="clip0_2_881">
<rect width="109.99" height="33.172" fill="white"/>
</clipPath>
</defs>
</svg>
