<svg width="110" height="34" viewBox="0 0 110 34" fill="none" xmlns="http://www.w3.org/2000/svg">
<g clip-path="url(#clip0_2_873)">
<path d="M107.218 11.4806C108.75 11.4806 109.991 10.2391 109.991 8.70757C109.991 7.17608 108.75 5.93457 107.218 5.93457C105.687 5.93457 104.445 7.17608 104.445 8.70757C104.445 10.2391 105.687 11.4806 107.218 11.4806Z" fill="#F85081"/>
<path d="M95.3222 33.1708C96.0805 33.1708 96.6952 32.5561 96.6952 31.7978C96.6952 31.0395 96.0805 30.4248 95.3222 30.4248C94.5639 30.4248 93.9492 31.0395 93.9492 31.7978C93.9492 32.5561 94.5639 33.1708 95.3222 33.1708Z" fill="#CECECE"/>
<path d="M60.2764 1.81801C60.2762 1.4584 60.3826 1.10683 60.5823 0.807725C60.7819 0.508625 61.0658 0.275465 61.3979 0.137712C61.7301 -4.15444e-05 62.0956 -0.0362049 62.4484 0.0338301C62.8011 0.103865 63.1252 0.276933 63.3795 0.531145C63.6339 0.785357 63.8071 1.10931 63.8773 1.46199C63.9475 1.81468 63.9116 2.18024 63.774 2.5125C63.6365 2.84475 63.4035 3.12876 63.1045 3.32857C62.8055 3.52838 62.454 3.63503 62.0944 3.63503C61.6124 3.63503 61.1501 3.44362 60.8092 3.10289C60.4683 2.76217 60.2766 2.3 60.2764 1.81801V1.81801Z" fill="#FAD31C"/>
<path d="M0 19.7324C0 19.0817 0.192933 18.4456 0.554443 17.9046C0.915953 17.3635 1.42984 16.9418 2.03101 16.6928C2.63217 16.4438 3.29369 16.3787 3.93188 16.5056C4.57008 16.6325 5.15634 16.9459 5.61646 17.406C6.07657 17.8661 6.3899 18.4524 6.51685 19.0906C6.64379 19.7288 6.5786 20.3903 6.32959 20.9914C6.08058 21.5926 5.65884 22.1064 5.1178 22.4679C4.57676 22.8295 3.94074 23.0224 3.29004 23.0224C2.41756 23.0221 1.58093 22.6754 0.963989 22.0585C0.347052 21.4415 0.000265071 20.6049 0 19.7324Z" fill="#FFC62A"/>
<path d="M40.9102 21.3783L49.7732 18.2403C50.4392 18.0068 51.1706 18.0463 51.8076 18.3502C52.4446 18.6541 52.9356 19.1977 53.1732 19.8623C53.4067 20.5284 53.3671 21.2597 53.0632 21.8968C52.7593 22.5338 52.2157 23.0247 51.5511 23.2623L42.6882 26.4003C42.0221 26.6341 41.2907 26.5947 40.6536 26.2908C40.0165 25.9868 39.5255 25.4431 39.2881 24.7783V24.7783C39.0547 24.1122 39.0942 23.3809 39.3981 22.7438C39.702 22.1068 40.2456 21.6159 40.9102 21.3783V21.3783Z" fill="#9177F2"/>
<path d="M74.155 17.5437L79.5691 12.1297C79.9768 11.7245 80.5282 11.4971 81.103 11.4971C81.6779 11.4971 82.2294 11.7245 82.6371 12.1297V12.1297C83.0423 12.5374 83.2698 13.0889 83.2698 13.6638C83.2698 14.2386 83.0423 14.7901 82.6371 15.1978L77.223 20.6107C76.8155 21.0162 76.264 21.2438 75.6891 21.2438C75.1142 21.2438 74.5626 21.0162 74.155 20.6107V20.6107C73.7499 20.2032 73.5225 19.6519 73.5225 19.0772C73.5225 18.5026 73.7499 17.9513 74.155 17.5437V17.5437Z" fill="#A5E7CB"/>
<path d="M24.966 11.7962L27.673 14.5032C27.8756 14.707 27.9893 14.9828 27.9893 15.2702C27.9893 15.5576 27.8756 15.8333 27.673 16.0372V16.0372C27.4691 16.2398 27.1934 16.3535 26.906 16.3535C26.6186 16.3535 26.3428 16.2398 26.139 16.0372L23.432 13.3302C23.2291 13.1265 23.1152 12.8507 23.1152 12.5632C23.1152 12.2757 23.2291 11.9999 23.432 11.7962V11.7962C23.6357 11.5933 23.9115 11.4794 24.199 11.4794C24.4865 11.4794 24.7623 11.5933 24.966 11.7962V11.7962Z" fill="#CECECE"/>
</g>
<defs>
<clipPath id="clip0_2_873">
<rect width="109.991" height="33.172" fill="white"/>
</clipPath>
</defs>
</svg>
