<svg width="44" height="44" viewBox="0 0 44 44" fill="none" xmlns="http://www.w3.org/2000/svg">
<g clip-path="url(#clip0_2_786)">
<path d="M2.27157 3.052C1.83647 3.54548 1.45628 4.08478 1.1377 4.66041C1.42211 4.13772 1.75891 3.6453 2.14291 3.19073C2.18311 3.14449 2.22131 3.09824 2.26152 3.05401L2.27157 3.052Z" fill="#00E0B7"/>
<path d="M0.0583021 10.9133C0.0552864 10.9508 0.0552864 10.9884 0.0583021 11.0259C0.086758 11.2586 0.198956 11.473 0.373938 11.6291C0.652565 11.8969 0.984921 12.1025 1.34899 12.2322C2.24486 12.5512 3.17793 12.7539 4.12538 12.8354C5.39432 12.9657 6.66963 13.0241 7.94517 13.0103C8.27086 13.0103 8.59655 12.9781 8.92223 12.9781C9.08508 12.9781 9.15946 12.9238 9.17957 12.7972C9.17629 12.7416 9.17629 12.6859 9.17957 12.6303C9.18962 12.0573 9.17957 11.4863 9.19967 10.9113C9.19967 11.4341 9.19967 11.9568 9.19967 12.4795C9.19967 12.9078 9.16348 12.8716 9.60176 12.8816C14.089 12.8997 18.5783 12.8816 23.0716 12.9098C26.9135 12.9399 30.7594 12.9098 34.6033 12.9098C34.6706 12.914 34.7381 12.9099 34.8044 12.8977H34.8245H34.8405C34.8455 12.8948 34.8497 12.8906 34.8526 12.8856C34.8602 12.8794 34.8658 12.871 34.8687 12.8615C34.8773 12.8433 34.8821 12.8234 34.8828 12.8032C34.886 12.7476 34.886 12.6919 34.8828 12.6363C34.8707 12.007 34.8828 11.3778 34.8606 10.7485C34.8606 10.4006 34.8466 10.0528 34.8405 9.70501C34.8405 9.47783 34.8405 9.25265 34.8405 9.02546V8.45247C34.8405 8.34792 34.8405 8.25141 34.8405 8.14084V7.62011C34.8405 7.4452 34.8405 7.27029 34.8405 7.09738C34.8405 6.92448 34.8405 6.74956 34.8405 6.57666C35.1964 7.1396 35.7291 7.43716 36.3021 7.68043C37.3073 8.10867 38.3769 8.33385 39.4343 8.59119C40.5702 8.86663 41.7182 9.10588 42.7877 9.59645C43.1935 9.76035 43.5492 10.028 43.8191 10.3725C43.9387 10.5255 44.0163 10.7071 44.0442 10.8993V11.0179C44.0442 19.3575 44.0442 27.6977 44.0442 36.0387C43.7825 38.0936 42.8322 39.9992 41.3484 41.4447C39.8646 42.8902 37.9349 43.7904 35.8739 43.9983C26.6702 43.9983 17.4658 43.9983 8.26081 43.9983C6.11393 43.7931 4.1083 42.8369 2.59716 41.2981C1.08603 39.7593 0.166311 37.7366 0 35.5863H0" fill="#5CD5C4"/>
<path fill-rule="evenodd" clip-rule="evenodd" d="M41.7805 3.0419C41.3623 3.13639 40.9401 3.2148 40.52 3.29522C39.328 3.49372 38.1497 3.76634 36.9917 4.11149C36.4607 4.2641 35.9578 4.50101 35.5019 4.81316C35.2766 4.95535 35.0917 5.15332 34.9653 5.3879C34.8388 5.62247 34.7751 5.88572 34.7802 6.15216V6.57437C34.7802 6.74727 34.7802 6.92218 34.7802 7.09509C34.7802 7.26799 34.7802 7.44291 34.7802 7.61782V8.13854C34.7802 8.24309 34.7802 8.33959 34.7802 8.45017V9.02317C34.7802 9.25035 34.7802 9.47553 34.7802 9.70272C34.7802 10.0505 34.7923 10.3984 34.8003 10.7462C34.8144 11.3755 34.8003 12.0048 34.8224 12.634C34.8257 12.6896 34.8257 12.7453 34.8224 12.8009C34.8218 12.8211 34.817 12.841 34.8084 12.8592C34.8055 12.8687 34.7999 12.8771 34.7923 12.8833C34.7893 12.8883 34.7852 12.8925 34.7802 12.8954H34.7641H34.744C34.6778 12.9077 34.6102 12.9117 34.543 12.9075C30.6991 12.9075 26.8531 12.9276 23.0112 12.9075C18.524 12.8713 14.0347 12.9075 9.54143 12.8793C9.11321 12.8793 9.13935 12.9135 9.13935 12.4772C9.13935 11.9545 9.13935 11.4318 9.13935 10.909C9.13935 9.47955 9.13935 8.05209 9.15945 6.62262V6.57235C9.18358 5.40425 8.89207 4.91972 7.64561 4.3608C7.27505 4.19811 6.89427 4.05976 6.5057 3.94663L6.33884 3.90039C6.19208 3.85817 6.04331 3.81997 5.89454 3.78378C5.82015 3.76367 5.74376 3.74759 5.66937 3.72949C5.14666 3.60886 4.61591 3.51035 4.08918 3.4058C3.77355 3.34147 3.4559 3.28316 3.13826 3.22285C2.97943 3.19269 2.82262 3.16253 2.6638 3.12835C2.50497 3.09417 2.35821 3.06603 2.20542 3.03185H2.19336C3.71159 1.31632 5.81915 0.234151 8.09795 0L35.9241 0C38.1874 0.247853 40.2762 1.33283 41.7805 3.0419Z" fill="#37A596"/>
<path d="M43.9981 7.92729V10.9008C43.9701 10.7086 43.8925 10.5271 43.7729 10.3741C43.503 10.0295 43.1474 9.76193 42.7415 9.59802C41.672 9.10343 40.5301 8.86418 39.3882 8.59276C38.3307 8.33542 37.2652 8.11024 36.2559 7.682C35.683 7.43873 35.1502 7.14118 34.7944 6.57823V6.15603C34.7882 5.89053 34.8504 5.62792 34.975 5.39342C35.0997 5.15892 35.2825 4.96043 35.5061 4.81703C35.9604 4.50385 36.462 4.2656 36.9917 4.11134C38.1504 3.7661 39.3295 3.49348 40.522 3.29507C40.9422 3.21465 41.3644 3.13624 41.7826 3.04175C42.9936 4.41165 43.7654 6.11365 43.9981 7.92729Z" fill="#5CD5C4"/>
<path d="M9.2261 6.5844V6.63466C8.87226 7.16342 8.35559 7.43886 7.80071 7.68415C6.7955 8.11037 5.72596 8.33756 4.66848 8.59491C3.53259 8.87035 2.38465 9.1096 1.3151 9.60016C0.90921 9.76488 0.553602 10.0332 0.283761 10.3782C0.164226 10.5313 0.0866223 10.7128 0.0585938 10.905V8.33756C0.157968 7.05198 0.52356 5.8011 1.13216 4.66436V4.65431C1.45074 4.07868 1.83093 3.53938 2.26603 3.0459C2.41882 3.08008 2.57162 3.11426 2.72441 3.1424C2.8772 3.17055 3.04004 3.20674 3.19887 3.2369C3.51651 3.29721 3.83416 3.35552 4.14979 3.41985C4.67652 3.5244 5.20727 3.6209 5.72998 3.74355C5.80437 3.76164 5.88076 3.77772 5.95515 3.79783C6.10392 3.83402 6.25269 3.87222 6.39945 3.91444L6.56631 3.96068C6.95488 4.07381 7.33566 4.21216 7.70622 4.37485C8.95871 4.93176 9.24821 5.41629 9.2261 6.5844Z" fill="#5CD5C4"/>
<path d="M9.18603 12.6398C9.18275 12.6954 9.18275 12.7511 9.18603 12.8067C9.16592 12.9334 9.09154 12.9876 8.92869 12.9876C8.60301 12.9876 8.27732 13.0198 7.95163 13.0198C6.67609 13.0336 5.40078 12.9752 4.13184 12.8449C3.18439 12.7634 2.25132 12.5607 1.35545 12.2417C0.99138 12.112 0.659025 11.9064 0.380397 11.6386C0.205416 11.4826 0.0932176 11.2682 0.0647618 11.0354C0.0617461 10.998 0.0617461 10.9603 0.0647618 10.9229C0.0931255 10.7314 0.170713 10.5506 0.289929 10.3981C0.55977 10.053 0.915378 9.78476 1.32127 9.62004C2.39082 9.12747 3.53273 8.88822 4.67465 8.61479C5.73213 8.35744 6.79966 8.13026 7.80688 7.70403C8.36176 7.4688 8.87843 7.18331 9.23227 6.65454C9.20412 8.08401 9.21015 9.51148 9.21216 10.9409C9.19407 11.4958 9.19608 12.0628 9.18603 12.6398Z" fill="#D6FFF7"/>
<path fill-rule="evenodd" clip-rule="evenodd" d="M43.9985 11.0197C43.9704 11.2526 43.8581 11.4671 43.6829 11.6229C43.4042 11.8907 43.0719 12.0963 42.7078 12.226C41.8119 12.545 40.8789 12.7477 39.9314 12.8292C38.6625 12.9596 37.3872 13.018 36.1116 13.0041C35.7859 13.0041 35.4603 12.9719 35.1346 12.9719C34.9697 12.9719 34.8953 12.9177 34.8752 12.791C34.8785 12.7354 34.8785 12.6797 34.8752 12.6241C34.8632 11.9948 34.8752 11.3655 34.8531 10.7363C34.8531 10.3884 34.839 10.0406 34.833 9.69281C34.833 9.46562 34.833 9.24044 34.833 9.01325V8.44026C34.833 8.33571 34.833 8.23921 34.833 8.12863V7.60791C34.833 7.43299 34.833 7.25808 34.833 7.08518C34.833 6.91227 34.833 6.73736 34.833 6.56445C35.1889 7.1274 35.7216 7.42495 36.2946 7.66822C37.2998 8.09646 38.3693 8.32164 39.4268 8.57898C40.5627 8.85442 41.7106 9.09367 42.7802 9.58424C43.186 9.74814 43.5416 10.0158 43.8115 10.3603C43.9311 10.5133 44.0088 10.6949 44.0367 10.887C44.0284 10.9324 44.0156 10.9769 43.9985 11.0197Z" fill="#D6FFF7"/>
<path d="M32.2709 28.7786C31.2889 29.9112 30.0854 30.8308 28.7346 31.4807C26.8277 32.4007 24.7524 32.92 22.637 33.0067C22.5063 33.0067 22.3776 33.0208 22.249 33.0308L22.0198 33.0469H21.9937C19.986 33.0222 18.0071 32.5655 16.1916 31.7079C14.7697 31.052 13.464 30.1693 12.3256 29.0942L12.2894 29.058C12.0318 28.8532 11.8575 28.5616 11.7988 28.2378C11.7587 27.979 11.8015 27.7143 11.921 27.4813C12.0405 27.2484 12.2307 27.0593 12.4643 26.941C12.7213 26.812 13.0126 26.7676 13.2965 26.8141C13.5803 26.8607 13.8421 26.9959 14.0445 27.2003C15.3513 28.6098 17.0065 29.65 18.8433 30.2161C20.0367 30.6019 21.2946 30.7474 22.5445 30.6443C23.7035 30.5716 24.8502 30.3659 25.9622 30.0311C27.3907 29.5661 28.6963 28.7855 29.782 27.7472L29.9046 27.6346C30.1001 27.4444 30.3055 27.2645 30.5198 27.0958C30.6503 26.9927 30.8 26.9167 30.9601 26.8722C31.1203 26.8276 31.2877 26.8155 31.4527 26.8364C31.6237 26.8606 31.7882 26.9186 31.9366 27.007C32.085 27.0953 32.2144 27.2123 32.3171 27.3511C32.485 27.5537 32.573 27.8107 32.5644 28.0736C32.5559 28.3366 32.4515 28.5873 32.2709 28.7786Z" fill="white"/>
<path d="M15.8504 22.4492C15.736 22.5271 15.6008 22.5688 15.4624 22.5688C15.324 22.5688 15.1888 22.5271 15.0744 22.4492L14.7065 22.2482C14.4873 22.1336 14.2682 22.019 14.0511 21.9024C13.2188 21.4581 12.3663 21.4561 11.4375 21.9024C10.8686 22.1778 10.4082 22.411 9.98802 22.6423C9.91363 22.6845 9.83724 22.7227 9.76084 22.7609C9.64489 22.8225 9.51616 22.8562 9.38489 22.8594C9.23893 22.8586 9.09743 22.809 8.98281 22.7187C8.87303 22.6279 8.79456 22.5049 8.75848 22.3671C8.7224 22.2292 8.73055 22.0836 8.78177 21.9506C8.93205 21.3992 9.19415 20.8846 9.55176 20.4387C10.3439 19.4335 11.3611 18.8846 12.501 18.8303H12.5191C13.2481 18.8289 13.9608 19.0457 14.5656 19.4527C15.1703 19.8597 15.6395 20.4384 15.9127 21.1143C15.9823 21.2822 16.042 21.4541 16.0916 21.629C16.1526 21.7725 16.1619 21.9327 16.1179 22.0823C16.0739 22.2319 15.9793 22.3616 15.8504 22.4492Z" fill="white"/>
<path d="M34.9395 22.4494C34.829 22.5391 34.6931 22.5918 34.5509 22.6001C34.4088 22.6084 34.2677 22.5719 34.1474 22.4956C33.7896 22.2946 33.4297 22.1096 33.0719 21.9206C32.6853 21.7146 32.2542 21.6064 31.8161 21.6053C31.3781 21.6043 30.9464 21.7104 30.5589 21.9146C30.0663 22.1438 29.5758 22.4032 29.0993 22.6545L28.8601 22.7811C28.7314 22.8556 28.5865 22.8977 28.4379 22.9038C28.285 22.9036 28.1375 22.847 28.0237 22.7449C27.9106 22.6485 27.832 22.5178 27.8001 22.3726C27.7682 22.2274 27.7846 22.0757 27.8468 21.9407C28.4037 20.274 29.5014 19.2627 31.1097 18.925C31.2378 18.9018 31.3676 18.8883 31.4977 18.8848H31.6344H31.6726C32.4896 18.9019 33.2771 19.1925 33.9095 19.7101C34.5418 20.2276 34.9823 20.9422 35.1607 21.7397C35.1973 21.8666 35.1958 22.0016 35.1565 22.1277C35.1172 22.2538 35.0418 22.3657 34.9395 22.4494Z" fill="white"/>
</g>
<defs>
<clipPath id="clip0_2_786">
<rect width="44" height="44" fill="white"/>
</clipPath>
</defs>
</svg>
